<svg width="200" height="200" viewBox="0 0 200 200" fill="none" xmlns="http://www.w3.org/2000/svg">
<rect width="200" height="200" rx="32" fill="#BEFE00"/>
<path d="M70.6875 38.082L62.2148 63.7812L71.4961 95H56.2031L50.2266 70.6016V95H35.4258V38.082H50.2266V60.1953L56.8008 38.082H70.6875Z" fill="#0A1620"/>
<path d="M88.8984 38.082V95H74.0976V38.082H88.8984Z" fill="#0A1620"/>
<path d="M128.66 71.4102C128.66 77.1289 128.52 81.1836 128.238 83.5742C127.98 85.9414 127.137 88.1094 125.707 90.0781C124.301 92.0469 122.391 93.5586 119.977 94.6133C117.562 95.668 114.75 96.1953 111.539 96.1953C108.492 96.1953 105.75 95.7031 103.312 94.7188C100.898 93.7109 98.9531 92.2109 97.4766 90.2188C96 88.2266 95.1211 86.0586 94.8398 83.7148C94.5586 81.3711 94.418 77.2695 94.418 71.4102V61.6719C94.418 55.9531 94.5469 51.9102 94.8047 49.543C95.0859 47.1523 95.9297 44.9727 97.3359 43.0039C98.7656 41.0352 100.687 39.5234 103.102 38.4688C105.516 37.4141 108.328 36.8867 111.539 36.8867C114.586 36.8867 117.316 37.3906 119.73 38.3984C122.168 39.3828 124.125 40.8711 125.602 42.8633C127.078 44.8555 127.957 47.0234 128.238 49.3672C128.52 51.7109 128.66 55.8125 128.66 61.6719V71.4102ZM113.859 52.707C113.859 50.0586 113.707 48.3711 113.402 47.6445C113.121 46.8945 112.523 46.5195 111.609 46.5195C110.836 46.5195 110.238 46.8242 109.816 47.4336C109.418 48.0195 109.219 49.7773 109.219 52.707V79.2852C109.219 82.5898 109.348 84.6289 109.605 85.4023C109.887 86.1758 110.52 86.5625 111.504 86.5625C112.512 86.5625 113.156 86.1172 113.437 85.2266C113.719 84.3359 113.859 82.2148 113.859 78.8633V52.707Z" fill="#0A1620"/>
<path d="M165.574 55.3086H151.828V51.0898C151.828 49.1211 151.652 47.8672 151.301 47.3281C150.949 46.7891 150.363 46.5195 149.543 46.5195C148.652 46.5195 147.973 46.8828 147.504 47.6094C147.059 48.3359 146.836 49.4375 146.836 50.9141C146.836 52.8125 147.094 54.2422 147.609 55.2031C148.102 56.1641 149.496 57.3242 151.793 58.6836C158.379 62.5977 162.527 65.8086 164.238 68.3164C165.949 70.8242 166.805 74.8672 166.805 80.4453C166.805 84.5 166.324 87.4883 165.363 89.4102C164.426 91.332 162.598 92.9492 159.879 94.2617C157.16 95.5508 153.996 96.1953 150.387 96.1953C146.426 96.1953 143.039 95.4453 140.227 93.9453C137.437 92.4453 135.609 90.5352 134.742 88.2148C133.875 85.8945 133.441 82.6016 133.441 78.3359V74.6094H147.187V81.5352C147.187 83.668 147.375 85.0391 147.75 85.6484C148.148 86.2578 148.84 86.5625 149.824 86.5625C150.809 86.5625 151.535 86.1758 152.004 85.4023C152.496 84.6289 152.742 83.4805 152.742 81.957C152.742 78.6055 152.285 76.4141 151.371 75.3828C150.434 74.3516 148.125 72.6289 144.445 70.2148C140.766 67.7773 138.328 66.0078 137.133 64.9062C135.937 63.8047 134.941 62.2812 134.145 60.3359C133.371 58.3906 132.984 55.9062 132.984 52.8828C132.984 48.5234 133.535 45.3359 134.637 43.3203C135.762 41.3047 137.566 39.7344 140.051 38.6094C142.535 37.4609 145.535 36.8867 149.051 36.8867C152.895 36.8867 156.164 37.5078 158.859 38.75C161.578 39.9922 163.371 41.5625 164.238 43.4609C165.129 45.3359 165.574 48.5352 165.574 53.0586V55.3086Z" fill="#0A1620"/>
<path d="M68.9353 127.035H54.1345V121.867C54.1345 118.609 53.9939 116.57 53.7126 115.75C53.4314 114.93 52.7634 114.52 51.7087 114.52C50.7947 114.52 50.1736 114.871 49.8455 115.574C49.5173 116.277 49.3533 118.082 49.3533 120.988V148.305C49.3533 150.859 49.5173 152.547 49.8455 153.367C50.1736 154.164 50.8298 154.562 51.8142 154.562C52.8923 154.562 53.6189 154.105 53.9939 153.191C54.3923 152.277 54.5916 150.496 54.5916 147.848V141.098H51.6033V132.449H68.9353V163H59.6189L58.2478 158.922C57.24 160.68 55.9626 162.004 54.4158 162.895C52.8923 163.762 51.0876 164.195 49.0017 164.195C46.5173 164.195 44.1853 163.598 42.0056 162.402C39.8494 161.184 38.2087 159.684 37.0837 157.902C35.9587 156.121 35.2556 154.258 34.9744 152.312C34.6931 150.344 34.5525 147.402 34.5525 143.488V126.578C34.5525 121.141 34.8455 117.191 35.4314 114.73C36.0173 112.27 37.6931 110.02 40.4587 107.98C43.2478 105.918 46.8455 104.887 51.2517 104.887C55.5876 104.887 59.1853 105.777 62.0447 107.559C64.9041 109.34 66.7673 111.461 67.6345 113.922C68.5017 116.359 68.9353 119.91 68.9353 124.574V127.035Z" fill="#0A1620"/>
<path d="M111.996 106.082L101.203 142.398V163H87.4922V142.398L77.0859 106.082H90.6914C92.8242 117.168 94.0195 124.633 94.2773 128.477C95.0976 122.406 96.4687 114.941 98.3906 106.082H111.996Z" fill="#0A1620"/>
<path d="M165.99 106.082V163H153.053V124.574L147.885 163H138.709L133.26 125.453V163H120.322V106.082H139.483C140.045 109.504 140.643 113.535 141.276 118.176L143.315 132.66L146.69 106.082H165.99Z" fill="#0A1620"/>
</svg>
